<svg width="16" height="16" viewBox="0 0 16 16" fill="none" xmlns="http://www.w3.org/2000/svg">
<path d="M7.33331 4.66666H9.99998V5.99999H7.33331V7.33333H8.66665C9.02027 7.33333 9.35941 7.4738 9.60945 7.72385C9.8595 7.9739 9.99998 8.31304 9.99998 8.66666V9.99999C9.99998 10.3536 9.8595 10.6928 9.60945 10.9428C9.35941 11.1929 9.02027 11.3333 8.66665 11.3333H5.99998V9.99999H8.66665V8.66666H7.33331C6.97969 8.66666 6.64055 8.52619 6.3905 8.27614C6.14046 8.02609 5.99998 7.68695 5.99998 7.33333V5.99999C5.99998 5.64637 6.14046 5.30723 6.3905 5.05719C6.64055 4.80714 6.97969 4.66666 7.33331 4.66666ZM7.99998 1.33333C8.87546 1.33333 9.74236 1.50577 10.5512 1.8408C11.36 2.17583 12.095 2.66689 12.714 3.28595C13.3331 3.90501 13.8241 4.63993 14.1592 5.44877C14.4942 6.25761 14.6666 7.12452 14.6666 7.99999C14.6666 9.7681 13.9643 11.4638 12.714 12.714C11.4638 13.9643 9.76809 14.6667 7.99998 14.6667C7.1245 14.6667 6.25759 14.4942 5.44876 14.1592C4.63992 13.8242 3.90499 13.3331 3.28593 12.714C2.03569 11.4638 1.33331 9.7681 1.33331 7.99999C1.33331 6.23188 2.03569 4.53619 3.28593 3.28595C4.53618 2.03571 6.23187 1.33333 7.99998 1.33333ZM7.99998 2.66666C6.58549 2.66666 5.22894 3.22856 4.22874 4.22876C3.22855 5.22895 2.66665 6.58551 2.66665 7.99999C2.66665 9.41448 3.22855 10.771 4.22874 11.7712C5.22894 12.7714 6.58549 13.3333 7.99998 13.3333C9.41447 13.3333 10.771 12.7714 11.7712 11.7712C12.7714 10.771 13.3333 9.41448 13.3333 7.99999C13.3333 6.58551 12.7714 5.22895 11.7712 4.22876C10.771 3.22856 9.41447 2.66666 7.99998 2.66666Z" fill="#D3305B"/>
</svg>
