<svg width="16" height="16" viewBox="0 0 16 16" fill="none" xmlns="http://www.w3.org/2000/svg">
<path d="M7.99998 1.33333C8.87546 1.33333 9.74236 1.50577 10.5512 1.8408C11.36 2.17583 12.095 2.66689 12.714 3.28595C13.3331 3.90501 13.8241 4.63993 14.1592 5.44877C14.4942 6.25761 14.6666 7.12452 14.6666 7.99999C14.6666 9.7681 13.9643 11.4638 12.714 12.714C11.4638 13.9643 9.76809 14.6667 7.99998 14.6667C7.1245 14.6667 6.25759 14.4942 5.44876 14.1592C4.63992 13.8242 3.90499 13.3331 3.28593 12.714C2.03569 11.4638 1.33331 9.7681 1.33331 7.99999C1.33331 6.23188 2.03569 4.53619 3.28593 3.28595C4.53618 2.03571 6.23187 1.33333 7.99998 1.33333ZM7.33331 4.66666C6.97969 4.66666 6.64055 4.80714 6.3905 5.05719C6.14046 5.30723 5.99998 5.64637 5.99998 5.99999V9.99999C5.99998 10.3536 6.14046 10.6928 6.3905 10.9428C6.64055 11.1929 6.97969 11.3333 7.33331 11.3333H8.66665C9.02027 11.3333 9.35941 11.1929 9.60945 10.9428C9.8595 10.6928 9.99998 10.3536 9.99998 9.99999V9.33333H8.66665V9.99999H7.33331V5.99999H8.66665V6.66666H9.99998V5.99999C9.99998 5.64637 9.8595 5.30723 9.60945 5.05719C9.35941 4.80714 9.02027 4.66666 8.66665 4.66666H7.33331Z" fill="#D3305B"/>
</svg>
